<?xml version="1.0" encoding="utf-8"?>
<!-- Generator: Adobe Illustrator 23.1.1, SVG Export Plug-In . SVG Version: 6.00 Build 0)  -->
<svg version="1.1" id="adidas" xmlns="http://www.w3.org/2000/svg" xmlns:xlink="http://www.w3.org/1999/xlink" x="0px" y="0px"
	 viewBox="0 0 256 256" style="enable-background:new 0 0 256 256;" xml:space="preserve">
<style type="text/css">
	.st0{fill:#FFFFFF;}
</style>
<g>
	<path class="st0" d="M178.13,167.97c-5.54,0-8.82-2.83-9.07-6.91h5.29c0,1.36,0.76,3.17,4.03,3.28c2.27,0,3.53-1.36,3.53-2.38
		c-0.25-1.59-2.27-1.7-4.28-2.05c-2.27-0.33-4.03-0.79-5.29-1.35c-1.76-0.91-2.78-2.84-2.78-4.88c0-3.63,3.03-6.46,8.32-6.46
		c5.04,0,8.32,2.61,8.56,6.58h-5.03c0-1.01-0.25-2.72-3.28-2.72c-2.02,0-3.28,0.34-3.53,1.81c0,2.05,4.28,1.93,7.56,2.72
		c3.03,0.8,5.04,2.72,5.04,5.45C187.19,166.04,183.16,167.97,178.13,167.97"/>
	<path class="st0" d="M81.66,134.48l17.38-10.1l9.32,15.99H84.94"/>
	<g>
		<path class="st0" d="M118.21,167.36v-20.18"/>
		<rect x="115.67" y="147.18" class="st0" width="5.08" height="20.18"/>
	</g>
	<path class="st0" d="M73.59,157.57c0,3.17,2.78,5.78,5.79,5.78c3.28,0,5.79-2.61,5.79-5.78c0-3.06-2.51-5.78-5.79-5.78
		C76.37,151.79,73.59,154.51,73.59,157.57 M79.13,168c-5.54,0-10.32-4.65-10.32-10.43c0-5.78,4.78-10.32,10.32-10.32
		c2.27,0,4.29,0.57,6.04,1.81v-1.59h5.04v20.07h-5.04v-1.25C83.67,167.43,81.4,168,79.13,168"/>
	<path class="st0" d="M146.4,140.38l-24.18-42.17L139.6,88l30.23,52.38"/>
	<path class="st0" d="M96.77,157.57c0,3.17,2.52,5.78,5.79,5.78c3.01,0,5.79-2.61,5.79-5.78c0-3.06-2.78-5.78-5.79-5.78
		C99.29,151.79,96.77,154.51,96.77,157.57 M102.31,168c-5.79,0-10.33-4.65-10.33-10.43c0-5.78,4.53-10.32,10.33-10.32
		c2.26,0,4.28,0.57,6.04,1.81v-8.5h5.03v26.98h-5.03v-1.25C106.6,167.43,104.58,168,102.31,168"/>
	<path class="st0" d="M102.06,116.46l17.63-9.97l19.4,33.89h-18.4v4.99h-5.03v-4.99"/>
	<path class="st0" d="M183.93,145.53c-1.26,0-2.52-1.14-2.52-2.49s1.26-2.49,2.52-2.49c1.51,0,2.52,1.14,2.52,2.49
		S185.44,145.53,183.93,145.53 M183.93,140.88c-1.26,0-2.02,1.01-2.02,2.15s0.76,2.16,2.02,2.16c1.26,0,2.01-1.02,2.01-2.16
		C185.94,141.9,185.18,140.88,183.93,140.88"/>
	<path class="st0" d="M184.45,144.4l-0.5-1.14h-0.5v1.14h-0.38v-2.72h1.14c0.25,0,0.76,0.35,0.76,0.8c0,0.45-0.25,0.68-0.5,0.79
		l0.5,1.14 M183.95,142.03h-0.5v0.9h0.5c0.5,0,0.5-0.11,0.5-0.45C184.45,142.25,184.45,142.03,183.95,142.03"/>
	<path class="st0" d="M150.66,157.57c0,3.17,2.52,5.78,5.79,5.78c3.03,0,5.79-2.61,5.79-5.78c0-3.06-2.76-5.78-5.79-5.78
		C153.18,151.79,150.66,154.51,150.66,157.57 M156.2,168c-5.79,0-10.32-4.65-10.32-10.43c0-5.78,4.53-10.32,10.32-10.32
		c2.27,0,4.29,0.57,6.04,1.81v-1.59h4.79v20.07h-4.79v-1.25C160.49,167.43,158.47,168,156.2,168"/>
	<path class="st0" d="M127.5,157.57c0,3.17,2.78,5.78,5.79,5.78c3.28,0,5.79-2.61,5.79-5.78c0-3.06-2.52-5.78-5.79-5.78
		C130.27,151.79,127.5,154.51,127.5,157.57 M139.09,140.56h5.03v26.98h-5.03v-1.25c-1.52,1.14-3.53,1.71-5.79,1.71
		c-5.79,0-10.58-4.65-10.58-10.43s4.78-10.32,10.58-10.32c2.26,0,4.28,0.57,5.79,1.81V140.56z"/>
</g>
</svg>
