<?xml version="1.0" encoding="utf-8"?>
<!-- Generator: Adobe Illustrator 23.1.1, SVG Export Plug-In . SVG Version: 6.00 Build 0)  -->
<svg version="1.1" id="レイヤー_1" xmlns="http://www.w3.org/2000/svg" xmlns:xlink="http://www.w3.org/1999/xlink" x="0px"
	 y="0px" viewBox="0 0 256 256" style="enable-background:new 0 0 256 256;" xml:space="preserve">
<style type="text/css">
	.st0{fill:#FFFFFF;}
</style>
<path class="st0" d="M132.87,114.03c0,2.02-1.63,3.66-3.66,3.66c-2.02,0-3.66-1.63-3.66-3.66s1.57-3.66,3.66-3.66
	C131.29,110.43,132.87,112.06,132.87,114.03z M117.8,121.39c0,0.34,0,0.9,0,0.9s-1.74-2.25-5.45-2.25
	c-6.13,0-10.91,4.67-10.91,11.13c0,6.41,4.72,11.13,10.91,11.13c3.77,0,5.45-2.31,5.45-2.31v0.96c0,0.45,0.34,0.79,0.79,0.79h4.55
	v-21.14c0,0-4.16,0-4.55,0C118.13,120.61,117.8,121,117.8,121.39z M117.8,134.94c-0.84,1.24-2.53,2.31-4.55,2.31
	c-3.6,0-6.35-2.25-6.35-6.07c0-3.82,2.76-6.07,6.35-6.07c1.97,0,3.77,1.12,4.55,2.31V134.94z M126.51,120.61h5.4v21.14h-5.4V120.61z
	 M207.15,120.04c-3.71,0-5.45,2.25-5.45,2.25v-11.86h-5.4v31.32c0,0,4.16,0,4.55,0c0.45,0,0.79-0.39,0.79-0.79v-0.96l0,0
	c0,0,1.74,2.31,5.45,2.31c6.13,0,10.91-4.72,10.91-11.13C218,124.77,213.22,120.04,207.15,120.04z M206.25,137.19
	c-2.08,0-3.71-1.07-4.55-2.31v-7.53c0.84-1.12,2.64-2.31,4.55-2.31c3.6,0,6.35,2.25,6.35,6.07
	C212.6,134.94,209.85,137.19,206.25,137.19z M193.48,129.21v12.6h-5.4v-11.98c0-3.49-1.12-4.89-4.16-4.89
	c-1.63,0-3.32,0.84-4.39,2.08v14.73h-5.4v-21.14h4.27c0.45,0,0.79,0.39,0.79,0.79v0.9c1.57-1.63,3.66-2.25,5.74-2.25
	c2.36,0,4.33,0.67,5.9,2.02C192.75,123.64,193.48,125.67,193.48,129.21z M161.04,120.04c-3.71,0-5.45,2.25-5.45,2.25v-11.86h-5.4
	v31.32c0,0,4.16,0,4.55,0c0.45,0,0.79-0.39,0.79-0.79v-0.96l0,0c0,0,1.74,2.31,5.45,2.31c6.13,0,10.91-4.72,10.91-11.13
	C171.95,124.77,167.17,120.04,161.04,120.04z M160.14,137.19c-2.08,0-3.71-1.07-4.55-2.31v-7.53c0.84-1.12,2.64-2.31,4.55-2.31
	c3.6,0,6.35,2.25,6.35,6.07C166.49,134.94,163.74,137.19,160.14,137.19z M145.52,120.04c1.63,0,2.47,0.28,2.47,0.28v5
	c0,0-4.5-1.52-7.31,1.69v14.79h-5.4v-21.2c0,0,4.16,0,4.55,0c0.45,0,0.79,0.39,0.79,0.79v0.9
	C141.64,121.11,143.83,120.04,145.52,120.04z M89.46,139.84c-0.28-0.67-0.56-1.41-0.84-2.02c-0.45-1.01-0.9-1.97-1.29-2.87
	l-0.06-0.06c-3.88-8.43-8.04-16.98-12.43-25.42l-0.17-0.34c-0.45-0.84-0.9-1.74-1.35-2.64c-0.56-1.01-1.12-2.08-2.02-3.09
	c-1.8-2.25-4.39-3.49-7.14-3.49c-2.81,0-5.34,1.24-7.2,3.37c-0.84,1.01-1.46,2.08-2.02,3.09c-0.45,0.9-0.9,1.8-1.35,2.64l-0.17,0.34
	c-4.33,8.43-8.55,16.98-12.43,25.42l-0.06,0.11c-0.39,0.9-0.84,1.86-1.29,2.87c-0.28,0.62-0.56,1.29-0.84,2.02
	c-0.73,2.08-0.96,4.05-0.67,6.07c0.62,4.22,3.43,7.76,7.31,9.33c1.46,0.62,2.98,0.9,4.55,0.9c0.45,0,1.01-0.06,1.46-0.11
	c1.86-0.22,3.77-0.84,5.62-1.91c2.31-1.29,4.5-3.15,6.97-5.85c2.47,2.7,4.72,4.55,6.97,5.85c1.86,1.07,3.77,1.69,5.62,1.91
	c0.45,0.06,1.01,0.11,1.46,0.11c1.57,0,3.15-0.28,4.55-0.9c3.94-1.57,6.69-5.17,7.31-9.33C90.41,143.89,90.19,141.92,89.46,139.84z
	 M64.1,142.76c-3.04-3.82-5-7.42-5.68-10.46c-0.28-1.29-0.34-2.42-0.17-3.43c0.11-0.9,0.45-1.69,0.9-2.36
	c1.07-1.52,2.87-2.47,4.95-2.47c2.08,0,3.94,0.9,4.95,2.47c0.45,0.67,0.79,1.46,0.9,2.36c0.17,1.01,0.11,2.19-0.17,3.43
	C69.1,135.28,67.13,138.88,64.1,142.76z M86.53,145.4c-0.39,2.92-2.36,5.45-5.12,6.58c-1.35,0.56-2.81,0.73-4.27,0.56
	c-1.41-0.17-2.81-0.62-4.27-1.46c-2.02-1.12-4.05-2.87-6.41-5.45c3.71-4.55,5.96-8.72,6.8-12.43c0.39-1.74,0.45-3.32,0.28-4.78
	c-0.22-1.41-0.73-2.7-1.52-3.82c-1.74-2.53-4.67-3.99-7.93-3.99s-6.19,1.52-7.93,3.99c-0.79,1.12-1.29,2.42-1.52,3.82
	c-0.22,1.46-0.17,3.09,0.28,4.78c0.84,3.71,3.15,7.93,6.8,12.48c-2.31,2.59-4.39,4.33-6.41,5.45c-1.46,0.84-2.87,1.29-4.27,1.46
	c-1.52,0.17-2.98-0.06-4.27-0.56c-2.76-1.12-4.72-3.66-5.12-6.58c-0.17-1.41-0.06-2.81,0.51-4.39c0.17-0.56,0.45-1.12,0.73-1.8
	c0.39-0.9,0.84-1.86,1.29-2.81l0.06-0.11c3.88-8.38,8.04-16.93,12.37-25.25l0.17-0.34c0.45-0.84,0.9-1.74,1.35-2.59
	c0.45-0.9,0.96-1.74,1.57-2.47c1.18-1.35,2.76-2.08,4.5-2.08c1.74,0,3.32,0.73,4.5,2.08c0.62,0.73,1.12,1.57,1.57,2.47
	c0.45,0.84,0.9,1.74,1.35,2.59l0.17,0.34c4.27,8.38,8.43,16.93,12.31,25.3v0.06c0.45,0.9,0.84,1.91,1.29,2.81
	c0.28,0.67,0.56,1.24,0.73,1.8C86.59,142.54,86.76,143.94,86.53,145.4z"/>
</svg>
