<?xml version="1.0" encoding="utf-8"?>
<!-- Generator: Adobe Illustrator 23.1.1, SVG Export Plug-In . SVG Version: 6.00 Build 0)  -->
<svg version="1.1" id="レイヤー_1" xmlns="http://www.w3.org/2000/svg" xmlns:xlink="http://www.w3.org/1999/xlink" x="0px"
	 y="0px" viewBox="0 0 256 256" style="enable-background:new 0 0 256 256;" xml:space="preserve">
<style type="text/css">
	.st0{fill:#FFFFFF;}
</style>
<path id="path5697" class="st0" d="M210.73,105.05l-26.52,45.91h7.37l26.52-45.91H210.73z"/>
<path id="path5699" class="st0" d="M184.11,150.95l26.52-45.91h-29.48l-26.52,45.91H184.11L184.11,150.95z"/>
<path id="path5703" class="st0" d="M89.4,120.27c0-0.42,0.42-0.6,0.79-0.6c0.42,0,0.6,0.18,0.79,0.6l8.46,30.68h13.77l6.95-39.87
	h-5.98l-5.38,30.68c0,0.42-0.42,0.6-0.79,0.6c-0.42,0-0.6-0.18-0.79-0.6l-8.4-30.68H85.05l-7.01,39.87h5.98L89.4,120.27
	 M65.72,137.42l-1.21-17.94c0-0.42-0.18-0.79-0.6-0.79c-0.42-0.18-0.79,0.18-1.03,0.6l-17.94,31.65H38l22.53-39.87h13.35l2.6,39.87
	h-9.79l-0.18-4.41c0-1.03-0.79-1.57-1.57-1.57H49.78l3.38-5.98h11.17C65.12,138.99,65.91,138.21,65.72,137.42 M140.87,137.42
	l-1.57-17.76c0-0.42-0.42-0.79-1.03-0.79c-0.42,0-0.6,0.18-0.79,0.42l-16.13,31.47h-6.77l20.54-39.87h13.35l3.56,39.87h-9.97
	l-0.42-4.41c0-1.03-0.79-1.57-1.57-1.57h-13.95l3.02-5.98h10.33C140.26,138.99,140.87,138.21,140.87,137.42"/>
</svg>
