<?xml version="1.0" encoding="utf-8"?>
<!-- Generator: Adobe Illustrator 23.1.1, SVG Export Plug-In . SVG Version: 6.00 Build 0)  -->
<svg version="1.1" id="レイヤー_1" xmlns="http://www.w3.org/2000/svg" xmlns:xlink="http://www.w3.org/1999/xlink" x="0px"
	 y="0px" viewBox="0 0 256 256" style="enable-background:new 0 0 256 256;" xml:space="preserve">
<style type="text/css">
	.st0{fill:#FFFFFF;}
</style>
<g id="logo" transform="matrix(1.25 0 0 -1.25 140.04 64.347)">
	<path id="au" class="st0" d="M5.91-61.72L5.91-61.72L5.91-61.72z M-33.33-52.2c-0.49-1.85-1.23-3.53-2.2-5
		c-2.88-4.41-6.7-6.11-9.36-6.26c-2.88,0.14-3.18,1.84-2.02,6.18c4.01,14.99,13.05,18.38,17.37,19.27
		C-29.53-38.01-33.33-52.2-33.33-52.2z M32.06-45.32c-3.86-5.9-8.3-12.12-11.92-15.53c-2.37-2.23-7.37-5.41-5.36,2.08
		c0.57,2.14,6.59,24.63,6.59,24.63c-1.61,0-9.65,0.43-12.33-9.58c0,0-1.71-6.36-2.43-9.04c-0.49-1.63-1.17-3.12-2.03-4.44
		c-2.88-4.41-6.7-6.11-9.36-6.26h0c-1.56,0.08-2.31,0.63-2.58,1.75c-0.27,1.09,0.27,3.33,0.56,4.42l6.2,23.16
		c-0.86,0.01-9.55,0.81-12.33-9.58l-2.94-10.91c-0.2-0.66-0.7-2.02-1.54-3.23c-1.88-2.71-5.23-5.6-7-5.6c-1.26,0-1.76,1.45-0.89,4.7
		l6.59,24.63h-2.92c-10.33,0-17.7-1.67-23.17-5.24c-9.17-5.99-11.49-17.85-11.49-20.29c0-2.6,0.8-8.05,9.83-8.05
		c5.64,0,9.62,2.96,12.01,5.69c0.09,0.11,0.18,0.21,0.27,0.32c0.19-1.28,0.64-2.69,1.6-3.81c1.19-1.39,3.44-2.2,5.6-2.2
		c4.76,0,8.82,3.19,10.98,6l0-0.01c0.56-2.69,2.6-5.99,9.64-5.99c5.64,0,9.62,2.96,12,5.69c0.09,0.1,0.18,0.21,0.27,0.31
		c0.19-1.28,0.64-2.68,1.6-3.8l0.1-0.11l0.03-0.03c1.19-1.27,3.5-2.05,5.39-2.05c4.09,0,8.11,2.34,11.5,5.91
		c4.4,4.64,10.18,13.01,12.52,16.48"/>
</g>
</svg>
