<?xml version="1.0" encoding="utf-8"?>
<!-- Generator: Adobe Illustrator 23.1.1, SVG Export Plug-In . SVG Version: 6.00 Build 0)  -->
<svg version="1.1" id="レイヤー_1" xmlns="http://www.w3.org/2000/svg" xmlns:xlink="http://www.w3.org/1999/xlink" x="0px"
	 y="0px" viewBox="0 0 256 256" style="enable-background:new 0 0 256 256;" xml:space="preserve">
<style type="text/css">
	.st0{fill:#FFFFFF;}
</style>
<g>
	<g>
		<path class="st0" d="M72.64,152.58c-6.21,1.13-9.69-2.73-10.35-6.3c-0.56-3.29,0.85-8.19,7.53-9.41c1.88-0.38,3.58-0.28,5.46,0.28
			c1.22,0.38,1.88,0.09,2.16-1.22l2.73-12.8c0.66-3.01,2.73-6.68,6.49-8.37c1.32-0.56,2.54-0.19,3.29,1.13
			c1.03,1.88,0.94,2.16-0.28,4.14c-0.47,0.75-0.85,1.79-1.22,2.92c-0.28,0.85,0.38,1.13,0.75,1.13c3.29-0.09,7.53-2.63,6.77-6.96
			c-0.56-3.2-3.58-5.55-9.03-4.61c-7.72,1.41-11.1,7.81-10.35,11.95c0.09,0.75,0.38,1.51,0.75,2.16c0.75,1.6,0.66,2.35-0.56,3.67
			l-1.69,1.69c-1.03,1.13-2.26,1.03-3.1-0.28c-0.85-1.41-1.88-3.48-2.35-6.02c-1.51-8.19,4.61-17.59,16.18-19.57
			c9.69-1.79,16.47,2.63,17.69,9.6c0.94,5.08-1.79,8.09-3.58,9.5c-1.13,0.85-1.13,1.32-0.09,2.16c1.51,1.32,3.48,3.67,4.14,7.53
			c1.03,5.83-1.41,13.27-9.22,14.68c-3.67,0.66-7.43-0.38-11.48-2.16c-1.32-0.66-2.07-0.47-3.01,0.66
			C78.47,150.33,76.03,152.02,72.64,152.58z M70.95,142.24c-1.69,0.28-2.54,1.32-2.26,2.45c0.28,1.32,1.6,1.6,2.63,1.41
			c0.94-0.19,1.79-0.75,2.45-1.41c0.85-0.85,0.56-1.98-0.66-2.26C72.36,142.14,71.7,142.14,70.95,142.24z M91.46,142.61
			c3.67-0.66,4.99-3.76,4.52-6.4c-0.19-1.03-1.22-4.99-6.77-6.12c-1.41-0.28-2.26,0.38-2.54,1.69l-1.03,4.61
			c-0.19,0.85-0.47,1.88-0.75,3.01c-0.38,1.22,0,2.07,1.22,2.54C87.88,142.61,89.58,142.89,91.46,142.61z"/>
		<path class="st0" d="M136.25,125.58c0.66-1.98,3.95-0.38,3.29,1.6c-2.63,7.24-6.4,13.64-12.61,14.68
			c-2.92,0.56-4.8-0.47-5.74-1.51c-0.94-0.94-1.32-0.94-2.26,0.09c-1.22,1.41-3.29,3.39-5.93,3.86c-3.76,0.66-6.3-1.98-6.87-5.55
			c-0.94-5.17,0.47-20.32,9.97-22.02c2.73-0.47,4.42,0.38,5.46,1.32c1.32,1.22,1.79,1.22,3.39,0.38l4.99-2.63
			c1.32-0.66,1.98-0.19,1.69,1.22l-2.63,12.7c-1.22,6.02-0.28,6.4,0.47,6.21C131.26,135.65,133.8,132.26,136.25,125.58z
			 M116.02,136.78c1.32-0.28,2.35-1.22,3.1-2.26c0.47-0.56,1.03-1.88,1.22-2.73l1.22-5.65c0.09-0.66-0.19-1.69-0.56-2.16
			c-0.38-0.47-1.03-0.85-1.79-0.66c-3.58,0.66-5.55,9.22-4.99,12.04C114.42,136.59,115.08,136.97,116.02,136.78z"/>
		<path class="st0" d="M164.47,120.59c0.66-1.88,3.95-0.28,3.29,1.6c-1.98,5.55-6.87,13.64-13.27,14.77
			c-4.42,0.75-8.94-1.88-9.6-7.81c-0.19-2.35,0.38-3.1,1.51-3.29c1.22-0.19,3.95-0.66,4.7-5.27c0.09-0.66,0.09-1.03,0-1.79
			c-0.19-0.85-0.47-1.13-1.32-1.03c-1.03,0.19-2.26,1.03-3.58,2.73c-0.66,0.85-1.22,1.98-1.41,3.01l-2.73,12.7
			c-0.38,1.79-1.22,2.54-3.01,2.82l-3.58,0.66c-1.6,0.28-2.26-0.47-1.98-1.98l6.87-32.18c0.38-1.79,1.22-2.54,3.01-2.82l3.58-0.66
			c1.6-0.28,2.26,0.47,1.98,1.98l-1.79,8.56c-0.19,0.94,0.28,1.22,1.04,0.56c1.41-1.22,3.67-2.82,6.3-3.29
			c3.39-0.56,5.27,1.03,5.74,3.29c0.47,2.45-0.75,6.59-0.94,7.15c-0.85,2.92-2.73,5.36-4.89,6.49c-1.13,0.56-1.41,1.32-1.04,2.45
			c0.38,1.22,1.22,2.35,3.01,1.88C158.83,130.66,162.21,126.71,164.47,120.59z"/>
		<path class="st0" d="M190.44,115.98c0.66-1.88,3.95-0.28,3.29,1.6c-2.26,6.4-7.15,13.74-16.94,15.43
			c-7.24,1.32-11.38-1.69-12.33-7.06c-1.13-6.21,1.51-18.07,12.61-20.04c5.65-1.03,11.67,1.41,9.79,9.31
			c-1.04,4.23-4.05,8-12.8,8.75c-1.04,0.09-1.51,1.13-0.94,1.98c0.66,1.03,2.16,1.98,5.36,1.41
			C183.39,126.43,188.09,122.66,190.44,115.98z M177.83,112.69c-2.07,0.38-3.39,2.82-4.14,4.7c-0.38,1.03,0.19,1.88,1.41,1.6
			c2.82-0.56,3.58-2.26,4.05-4.23C179.25,113.82,179.43,112.41,177.83,112.69z"/>
	</g>
	<g>
		<path class="st0" d="M160.43,146.19l1.32-6.02c0.09-0.47-0.09-0.56-0.56-0.38c-2.07,1.03-3.29,1.79-3.1,2.82
			c0.09,0.47,0.38,0.66,0.66,0.75c0.75,0.19,0.85,0.28,0.94,1.03l0.09,0.75c0.09,0.66-0.19,0.94-0.85,0.94
			c-1.98,0-3.39-1.13-3.76-2.92c-0.56-3.39,2.73-4.8,6.68-6.87c0.66-0.38,1.13-0.66,1.69-1.13c0.38-0.38,0.75-0.66,1.22-0.85
			c0.56-0.19,1.03-0.09,1.32,0.47c0.38,0.75,0.38,0.85-0.09,1.6c-0.19,0.28-0.47,0.75-0.56,1.32l-1.98,9.5
			c-1.03,4.89-3.58,6.3-5.74,6.68c-3.29,0.56-5.17-1.41-5.55-3.48c-0.38-2.16,0.75-4.33,3.2-4.89c0.66-0.19,1.03,0.09,1.13,0.75
			l0.09,0.75c0.19,0.85,0,1.03-0.75,1.41c-0.85,0.38-0.85,1.13-0.85,1.51c0.19,0.94,1.22,1.51,2.07,1.32
			C158.73,150.89,159.77,149.01,160.43,146.19z"/>
		<path class="st0" d="M177.36,142.99c0.28-0.75,1.51-0.09,1.32,0.66c-1.03,2.92-2.54,5.36-4.89,5.74c-2.07,0.38-3.2-1.13-2.45-4.7
			l0.09-0.28c0.19-0.94,0.38-1.79,0.28-2.07c0-0.28-0.28-0.38-0.56-0.28c-0.38,0.09-0.85,0.38-1.41,1.03
			c-0.28,0.28-0.47,0.75-0.56,1.13l-1.13,4.99c-0.19,0.66-0.47,1.03-1.13,1.13l-1.41,0.28c-0.66,0.09-0.85-0.19-0.75-0.75l1.88-8.66
			c0.09-0.66,0.47-0.94,1.13-0.85l1.03,0.19c1.22,0.19,0.85,0.28,1.79-0.47c0.56-0.47,1.41-0.94,2.35-1.13
			c1.32-0.19,2.07,0.38,2.26,1.32c0.09,0.47,0,1.13-0.19,2.16l-0.47,2.16c-0.47,2.26-0.19,2.54,0.19,2.45
			C175.39,146.94,176.42,145.62,177.36,142.99z"/>
		<path class="st0" d="M187.53,141.2c0.28-0.75,1.51-0.09,1.32,0.66c-0.85,2.54-2.82,5.36-6.59,6.02c-2.92,0.47-4.52-0.66-4.89-2.73
			c-0.47-2.45,0.66-7.15,4.89-7.9c2.63-0.47,4.33,0.94,3.76,3.95c-0.09,0.66-0.47,1.03-1.13,1.13l-1.51,0.28
			c-0.56,0.09-0.85-0.19-0.66-0.75c0.38-1.6,0.38-1.98-0.09-1.88c-1.51,0.28-2.26,3.48-2.07,4.7c0.19,1.32,1.69,1.13,2.26,1.04
			C184.8,145.25,186.68,143.74,187.53,141.2z"/>
		<path class="st0" d="M191.57,146.19c-1.22,0.19-2.26-0.56-2.54-1.79c-0.19-1.13,0.56-2.26,1.79-2.54
			c1.22-0.19,2.35,0.56,2.54,1.79S192.79,146,191.57,146.19z"/>
	</g>
</g>
</svg>
