<?xml version="1.0" encoding="utf-8"?>
<!-- Generator: Adobe Illustrator 23.1.1, SVG Export Plug-In . SVG Version: 6.00 Build 0)  -->
<svg version="1.1" id="レイヤー_1" xmlns="http://www.w3.org/2000/svg" xmlns:xlink="http://www.w3.org/1999/xlink" x="0px"
	 y="0px" viewBox="0 0 256 256" style="enable-background:new 0 0 256 256;" xml:space="preserve">
<style type="text/css">
	.st0{fill:#FFFFFF;}
</style>
<path class="st0" d="M104.15,113.93c0.07-1.7,0.32-3.54,0.63-4.92h-12c0.31,1.38,0.56,3.23,0.63,4.92c0.03,0.75,0.06,2.24,0.06,3.13
	v21.58c0,0.89-0.03,2.38-0.06,3.13c-0.07,1.7-0.32,3.54-0.63,4.92h12c-0.31-1.38-0.56-3.22-0.63-4.92
	c-0.03-0.75-0.06-2.24-0.06-3.13v-21.58C104.09,116.17,104.12,114.68,104.15,113.93 M159.96,113.93c0.08-1.7,0.33-3.54,0.64-4.92
	h-12.01c0.31,1.38,0.56,3.23,0.63,4.92c0.04,0.75,0.06,2.24,0.06,3.13v21.58c0,0.89-0.03,2.38-0.06,3.13
	c-0.07,1.7-0.32,3.54-0.63,4.92h12.01c-0.31-1.38-0.56-3.22-0.64-4.92c-0.03-0.75-0.06-2.24-0.06-3.13v-21.58
	C159.9,116.17,159.93,114.68,159.96,113.93 M201.42,146.69v-29.63c0-0.89,0.03-2.38,0.06-3.13c0.07-1.7,0.32-3.54,0.63-4.92h-8.33
	c0.31,1.38,0.56,3.23,0.63,4.92c0.03,0.75,0.06,2.24,0.06,3.13v17.27c-0.64-1.37-1.41-2.87-1.92-3.78
	c-0.83-1.45-12.44-21.54-12.44-21.54l-13.32,0c0.31,1.38,0.56,3.23,0.64,4.92c0.03,0.75,0.06,2.24,0.06,3.13v21.58
	c0,0.89-0.03,2.38-0.06,3.13c-0.07,1.7-0.33,3.55-0.64,4.92h8.34c-0.31-1.38-0.56-3.22-0.63-4.92c-0.03-0.75-0.06-2.24-0.06-3.13
	v-19c0.83,1.81,2.14,4.36,3.03,5.91c2.37,4.14,6.5,11.13,9.79,15.79c2.73,3.87,4.93,5.3,10.52,5.35L201.42,146.69z M87.92,109
	l-10.8,0c-0.84,3.85-3.95,7.69-7.01,11.51c-2.04,2.54-3.95,4.57-4.9,5.56v-9.01c0-0.89,0.03-2.38,0.06-3.13
	c0.07-1.69,0.32-3.54,0.63-4.92h-12c0.31,1.38,0.56,3.23,0.63,4.92c0.03,0.75,0.06,2.24,0.06,3.13v21.58c0,0.89-0.03,2.38-0.06,3.13
	c-0.07,1.7-0.32,3.55-0.63,4.92h12c-0.31-1.38-0.56-3.22-0.63-4.92c-0.03-0.75-0.06-2.24-0.06-3.13v-10.55
	c2.06,3.86,4.36,8.34,7.15,12.7c2.75,4.3,5.33,6.21,11.59,6.21c2.1,0,4.12-0.11,6.28-0.33c-3.31-3.24-9.9-13.3-14.67-21.76
	L87.92,109z M135.58,130.02c4.68-2.29,6.52-5.75,6.52-10.18c0-2.94-1.27-6.22-4.03-8.2c-2.52-1.8-5.43-2.34-9.14-2.51
	c-2.27-0.1-3.45-0.14-5.77-0.14l-12.57,0c0.31,1.38,0.56,3.23,0.63,4.92c0.03,0.75,0.06,2.24,0.06,3.13v21.58
	c0,0.89-0.03,2.38-0.06,3.13c-0.07,1.7-0.32,3.54-0.63,4.92h12c-0.31-1.38-0.56-3.22-0.63-4.92c-0.03-0.75-0.06-2.24-0.06-3.13
	v-21.58c0-0.7,0.02-1.76,0.04-2.55c0.54-0.07,1.42-0.11,2.08-0.11c1.08,0,2.08,0.08,3.04,0.31c3.11,0.74,4.74,2.92,4.74,6.11
	c0,4.75-3.23,6.92-8.55,7.82c1.58,3.4,3.73,8.08,5.78,11.71c3.2,5.67,6.2,6.65,12.26,6.65c1.8,0,3.73-0.12,5.37-0.31
	C142.72,142.89,137.09,132.15,135.58,130.02"/>
</svg>
