<?xml version="1.0" encoding="utf-8"?>
<!-- Generator: Adobe Illustrator 23.1.1, SVG Export Plug-In . SVG Version: 6.00 Build 0)  -->
<svg version="1.1" id="レイヤー_1" xmlns="http://www.w3.org/2000/svg" xmlns:xlink="http://www.w3.org/1999/xlink" x="0px"
	 y="0px" viewBox="0 0 256 256" style="enable-background:new 0 0 256 256;" xml:space="preserve">
<style type="text/css">
	.st0{fill:#FFFFFF;}
</style>
<path class="st0" d="M101.55,130.92l-1.07,3.04h-0.09c-0.18-0.69-0.51-1.73-1.04-2.98l-5.75-14.46h-5.63v23.04h3.73v-14.22
	c0-0.89,0-1.91-0.03-3.16c-0.03-0.63-0.09-1.1-0.12-1.46h0.09c0.18,0.89,0.39,1.55,0.54,1.97l6.92,16.81h2.62l6.86-16.96
	c0.15-0.39,0.3-1.16,0.45-1.82h0.09c-0.09,1.7-0.15,3.22-0.18,4.14v14.61h3.96v-23.01h-5.42L101.55,130.92z M116.63,122.96h3.87
	v16.51h-3.87V122.96z M118.6,115.99c-0.66,0-1.19,0.24-1.64,0.66c-0.45,0.42-0.69,0.95-0.69,1.61c0,0.63,0.24,1.16,0.69,1.58
	c0.45,0.42,0.98,0.63,1.64,0.63c0.66,0,1.22-0.24,1.64-0.63c0.45-0.42,0.69-0.95,0.69-1.58s-0.24-1.16-0.69-1.61
	C119.85,116.23,119.28,115.99,118.6,115.99 M134.24,122.81c-0.72-0.15-1.46-0.24-2.18-0.24c-1.76,0-3.37,0.39-4.71,1.16
	c-1.34,0.77-2.41,1.85-3.1,3.19c-0.72,1.37-1.07,2.95-1.07,4.77c0,1.58,0.36,2.98,1.04,4.26c0.69,1.25,1.64,2.27,2.92,2.95
	c1.22,0.69,2.65,1.04,4.26,1.04c1.85,0,3.43-0.39,4.68-1.1l0.03-0.03v-3.58l-0.15,0.12c-0.57,0.42-1.22,0.77-1.88,0.98
	c-0.69,0.24-1.31,0.36-1.85,0.36c-1.55,0-2.77-0.45-3.64-1.43c-0.89-0.95-1.34-2.27-1.34-3.9c0-1.7,0.45-3.04,1.37-4.02
	c0.92-0.98,2.15-1.49,3.64-1.49c1.25,0,2.53,0.42,3.7,1.25l0.15,0.12v-3.79l-0.03-0.03C135.59,123.2,135.02,122.96,134.24,122.81
	 M147.03,122.69c-0.95,0-1.85,0.3-2.62,0.92c-0.66,0.54-1.1,1.31-1.49,2.24h-0.03v-2.89h-3.87v16.51h3.87v-8.44
	c0-1.43,0.3-2.62,0.95-3.49c0.66-0.89,1.49-1.34,2.5-1.34c0.36,0,0.72,0.09,1.16,0.15c0.42,0.12,0.72,0.24,0.92,0.39l0.15,0.12
	v-3.87l-0.09-0.03C148.22,122.78,147.69,122.69,147.03,122.69 M157.58,122.61c-2.71,0-4.89,0.8-6.41,2.38
	c-1.55,1.58-2.3,3.76-2.3,6.5c0,2.56,0.77,4.65,2.27,6.17c1.49,1.49,3.52,2.27,6.05,2.27c2.65,0,4.77-0.8,6.29-2.41
	c1.55-1.61,2.3-3.76,2.3-6.41c0-2.62-0.72-4.71-2.18-6.23C162.2,123.35,160.15,122.61,157.58,122.61 M160.68,135.3
	c-0.72,0.92-1.85,1.37-3.25,1.37c-1.4,0-2.53-0.45-3.34-1.43c-0.8-0.92-1.19-2.27-1.19-3.96c0-1.76,0.42-3.1,1.19-4.05
	c0.8-0.95,1.91-1.43,3.31-1.43c1.37,0,2.44,0.45,3.22,1.37c0.77,0.92,1.19,2.27,1.19,4.02C161.76,132.98,161.43,134.38,160.68,135.3
	 M174.42,129.82c-1.22-0.51-2-0.89-2.35-1.22c-0.3-0.3-0.45-0.72-0.45-1.25c0-0.45,0.18-0.89,0.63-1.19c0.45-0.3,0.95-0.45,1.7-0.45
	c0.66,0,1.34,0.12,2,0.3c0.66,0.18,1.25,0.45,1.73,0.8l0.15,0.12v-3.64l-0.09-0.03c-0.45-0.18-1.04-0.36-1.76-0.51
	c-0.72-0.12-1.37-0.18-1.91-0.18c-1.85,0-3.37,0.45-4.56,1.43c-1.19,0.92-1.76,2.18-1.76,3.64c0,0.77,0.12,1.46,0.39,2.03
	c0.27,0.57,0.66,1.1,1.19,1.55c0.54,0.42,1.31,0.89,2.38,1.34c0.89,0.39,1.58,0.69,2,0.92c0.42,0.24,0.69,0.51,0.89,0.72
	c0.15,0.24,0.24,0.54,0.24,0.92c0,1.1-0.83,1.64-2.53,1.64c-0.66,0-1.34-0.12-2.15-0.39c-0.8-0.27-1.55-0.66-2.18-1.1l-0.15-0.12
	v3.79l0.09,0.03c0.57,0.27,1.25,0.45,2.09,0.66c0.83,0.15,1.58,0.27,2.24,0.27c2,0,3.64-0.45,4.8-1.43
	c1.19-0.95,1.82-2.18,1.82-3.76c0-1.1-0.3-2.09-0.95-2.83C177.05,131.16,175.97,130.41,174.42,129.82 M189.09,122.61
	c-2.71,0-4.89,0.8-6.41,2.38c-1.52,1.58-2.3,3.76-2.3,6.5c0,2.56,0.77,4.65,2.27,6.17c1.49,1.49,3.52,2.27,6.05,2.27
	c2.65,0,4.77-0.8,6.29-2.41c1.55-1.61,2.3-3.76,2.3-6.41c0-2.62-0.72-4.71-2.18-6.23C193.71,123.35,191.65,122.61,189.09,122.61
	 M192.16,135.3c-0.72,0.92-1.85,1.37-3.25,1.37c-1.43,0-2.53-0.45-3.34-1.43c-0.8-0.92-1.19-2.27-1.19-3.96
	c0-1.76,0.42-3.1,1.19-4.05c0.8-0.95,1.91-1.43,3.31-1.43c1.34,0,2.44,0.45,3.22,1.37c0.77,0.92,1.19,2.27,1.19,4.02
	C193.29,132.98,192.9,134.38,192.16,135.3 M218,126.15v-3.19h-3.9v-4.89l-0.12,0.03l-3.7,1.1l-0.09,0.03v3.73h-5.84v-2.09
	c0-0.95,0.24-1.7,0.66-2.18c0.42-0.48,1.04-0.72,1.82-0.72c0.54,0,1.1,0.12,1.73,0.39l0.15,0.09v-3.37l-0.09-0.03
	c-0.54-0.18-1.25-0.3-2.18-0.3c-1.16,0-2.18,0.27-3.1,0.72c-0.92,0.51-1.61,1.19-2.12,2.12c-0.51,0.89-0.77,1.91-0.77,3.07v2.3
	h-2.71v3.16h2.71v13.35h3.9v-13.32h5.84v8.49c0,3.49,1.64,5.25,4.92,5.25c0.54,0,1.1-0.09,1.64-0.18c0.57-0.12,0.98-0.27,1.22-0.39
	l0.03-0.03v-3.19l-0.15,0.12c-0.24,0.15-0.45,0.27-0.8,0.36c-0.3,0.09-0.57,0.12-0.77,0.12c-0.77,0-1.31-0.18-1.7-0.63
	c-0.36-0.42-0.54-1.1-0.54-2.12v-7.81L218,126.15L218,126.15z"/>
<path class="st0" d="M38,108.77h18.27v18.27H38V108.77z"/>
<path class="st0" d="M58.18,108.77h18.27v18.27H58.18V108.77z"/>
<path class="st0" d="M38,128.95h18.27v18.27H38V128.95z"/>
<path class="st0" d="M58.18,128.95h18.27v18.27H58.18V128.95z"/>
</svg>
