<?xml version="1.0" encoding="utf-8"?>
<!-- Generator: Adobe Illustrator 23.1.1, SVG Export Plug-In . SVG Version: 6.00 Build 0)  -->
<svg version="1.1" id="レイヤー_1" xmlns="http://www.w3.org/2000/svg" xmlns:xlink="http://www.w3.org/1999/xlink" x="0px"
	 y="0px" viewBox="0 0 256 256" style="enable-background:new 0 0 256 256;" xml:space="preserve">
<style type="text/css">
	.st0{fill:#FFFFFF;}
</style>
<g id="g3" transform="translate(-12.746893,875.06269)">
	<path id="path5" class="st0" d="M101.33-771.04c8.99,0,17.97-0.01,26.96,0c3.07,3.2,6.15,6.39,9.24,9.57
		c3.06-3.21,6.16-6.38,9.23-9.58c9.04,0,18.08,0,27.11,0c0,6.58,0,13.15,0,19.73c-0.02,0.3,0.07,0.63-0.08,0.91
		c-2.24,3.6-4.19,7.4-5.65,11.37c-0.19,0.43-0.36,0.92-0.78,1.18c-0.36,0.15-0.89,0.09-1.08-0.29c-0.26-0.47-0.24-1.02-0.31-1.54
		c-0.24-2-0.45-4.02-0.79-6.01c-0.2-1.02-0.43-2.12-1.2-2.88c-0.72-0.69-1.83-0.76-2.77-0.54c-0.86,0.19-1.68,0.69-2.11,1.47
		c-0.57,0.96-0.56,2.12-0.36,3.18c0.36,1.85,0.99,3.64,1.64,5.41c1.29,3.34,2.59,6.68,3.88,10.02c0.32,0.85,0.83,1.74,1.72,2.12
		c0.76,0.32,1.63,0.31,2.44,0.2c0.7-0.11,1.31-0.56,1.66-1.16c0.65-1.09,0.9-2.34,1.29-3.54c0.77-2.44,1.5-4.89,2.49-7.26
		c0.02,5.2,0,10.4,0.01,15.6c-5.64,0-11.28,0-16.92,0c-0.23-1.93-0.39-3.88-0.29-5.83c0.02-1.9,0.1-3.79,0.08-5.69
		c0.06-2.75-0.3-5.48-0.46-8.23c-0.18-2.13,0.06-4.27-0.14-6.4c1.6-0.99,3.27-1.85,4.88-2.82c1.08-0.66,2.25-1.23,3.17-2.11
		c0.51-0.49,0.91-1.24,0.6-1.94c-0.65-1.3-2.36-2-3.74-1.43c-1.13,0.51-1.8,1.62-2.83,2.27c-1.29,0.78-2.58,1.55-3.91,2.28
		c-1-0.51-2.2-0.68-3.28-0.35c-0.59,0.19-1.13,0.58-1.37,1.16c-0.28,0.63-0.04,1.33-0.17,1.98c-0.08,0.4-0.4,0.69-0.74,0.88
		c-1.46,0.85-2.93,1.68-4.39,2.54c-1.5,0.86-2.95,1.85-4.64,2.33c-1.02,0.3-2.22,0.64-2.72,1.66c-0.47,1,0.09,2.15,0.88,2.82
		c0.68,0.64,1.72,0.78,2.59,0.47c1.14-0.37,2.08-1.14,3.02-1.84c1.18-0.88,2.38-1.73,3.58-2.58c0.65-0.44,1.3-0.92,2.07-1.15
		c0.52-0.19,1.17,0.03,1.39,0.55c0.52,1.14,0.35,2.42,0.38,3.63c0.03,4.04-0.35,8.07-0.49,12.11c-0.01,1.9-0.03,3.79,0.06,5.68
		c-1.49-0.01-2.99,0.01-4.48-0.01c0.01-4.47,0.01-8.95,0-13.42c-2.84,2.34-5.67,4.7-8.5,7.04c-2.84-2.34-5.67-4.7-8.5-7.04
		c-0.01,4.47,0,8.95,0,13.42c-9.23,0.01-18.46,0-27.69,0C101.33-739.06,101.33-755.05,101.33-771.04L101.33-771.04L101.33-771.04z"
		/>
	<path id="path7" class="st0" d="M130.82-771.03c2.74,1.17,5.46,2.36,8.19,3.53c0.42,0.17,0.68,0.54,0.99,0.84
		c-0.81,0.88-1.67,1.72-2.48,2.6C135.29-766.39,133.03-768.69,130.82-771.03L130.82-771.03z"/>
	<path id="path9" class="st0" d="M175.69-771.06c1.5,0.88,3,1.76,4.49,2.66c-0.01,3.26,0,6.52,0,9.78
		c-1.59,1.73-3.09,3.55-4.48,5.44C175.68-759.14,175.69-765.1,175.69-771.06L175.69-771.06z"/>
	<path id="path11" class="st0" d="M176.03-743.24c1.22-2.25,2.59-4.43,4.14-6.48c0.01,8.89,0,17.77,0,26.65c-1.49,0-2.99,0-4.48,0
		c0-6.37,0-12.75,0-19.13C175.65-742.58,175.85-742.91,176.03-743.24L176.03-743.24L176.03-743.24z"/>
	<path id="path13" class="st0" d="M130.84-732.62c1.24,1.01,2.46,2.06,3.71,3.05c0.02,2.17,0.01,4.34,0.01,6.51
		c-1.24,0-2.48,0-3.72,0C130.84-726.25,130.83-729.44,130.84-732.62L130.84-732.62z"/>
	<path id="path15" class="st0" d="M140.21-729.32c1.32-1.1,2.64-2.19,3.96-3.28c-0.01,0.88,0.01,1.76-0.02,2.64
		c-0.28,0.21-0.55,0.43-0.81,0.65C142.29-729.31,141.25-729.3,140.21-729.32L140.21-729.32z"/>
</g>
</svg>
