<?xml version="1.0" encoding="utf-8"?>
<!-- Generator: Adobe Illustrator 23.1.1, SVG Export Plug-In . SVG Version: 6.00 Build 0)  -->
<svg version="1.1" id="レイヤー_1" xmlns="http://www.w3.org/2000/svg" xmlns:xlink="http://www.w3.org/1999/xlink" x="0px"
	 y="0px" viewBox="0 0 256 256" style="enable-background:new 0 0 256 256;" xml:space="preserve">
<style type="text/css">
	.st0{fill:#FFFFFF;}
</style>
<g>
	<g>
		<g>
			<g>
				<path class="st0" d="M139.01,132.92h2.23v-3.21h-2.56v-2.36h3.39v-3.2h-3.39v-2.52h2.27v-3.32h-14.61
					c0.27-0.37,0.51-0.74,0.73-1.11l-3.44-1.6c-0.9,1.36-2.05,2.77-3.41,4.12c-0.69,0.69-1.4,1.32-2.11,1.9l3.03,2.07
					c0.34-0.27,0.69-0.56,1.04-0.86v1.31h-3.37v3.2h3.37v2.36h-2.35v3.21h2.29c-0.83,1.63-2.22,3.53-3.24,4.45l2.95,2.24
					c1.44-1.37,2.79-3.28,3.81-5.51l-2.28-1.17h14.71l-2.36,1.38c1.16,1.53,2.5,3.47,3.28,5.09l3.25-1.64
					C141.55,136.31,140.23,134.26,139.01,132.92z M135.11,129.72h-0.9v-2.36h0.9V129.72z M130.92,127.36v2.36h-0.95v-2.36H130.92z
					 M129.97,124.15v-2.52h0.95v2.52C130.92,124.15,129.97,124.15,129.97,124.15z M135.11,124.15h-0.9v-2.52h0.9V124.15z
					 M125.75,121.63h0.92v2.52h-0.92V121.63z M125.75,127.36h0.92v2.36h-0.92V127.36z"/>
				<path class="st0" d="M126.19,134.01c0.51,1.14,1.31,4.26,1.31,5.2l3.51-0.77c-0.4-2.37-0.77-3.66-1.62-5.25L126.19,134.01z"/>
				<path class="st0" d="M130.89,134.22c0.64,1.07,1.77,3.89,1.89,5.02l3.58-0.9c-0.49-2.15-1.14-3.56-2.03-5.08L130.89,134.22z"/>
			</g>
			<path class="st0" d="M167.64,118.72h-10.89v0.56l-2.29-2.11c-1.83,1.1-4.67,1.99-7.91,2.4c-0.04,0-0.07,0.01-0.11,0.01v18.79
				h3.84v-1.23h5.88v-3.76h-5.88v-4.37h5.88v-3.55h-5.88v-3.08c2.55-0.5,4.78-1.24,6.47-2.13v19.35h3.89v-17.29h3.11v11.06h-2.53
				l1.3,3.98h1.91c1.77,0,3.21-1.36,3.21-3.02C167.64,134.02,167.64,118.72,167.64,118.72z"/>
			<path class="st0" d="M187.66,134c0.31-0.28,0.63-0.58,0.94-0.88c1.05-1.05,1.95-2.12,2.66-3.11l-1.06-1.02v-10.12h-6.45v-2.99
				h-4.18v2.99h-6.59v16.46c0,0-0.01,0-0.01,0c-0.81,0.18-1.6,0.34-2.38,0.48l0.8,3.93c0.42-0.09,0.83-0.19,1.24-0.29
				c3.56-0.85,6.79-1.86,9.34-2.89l-0.01-2.45c2.37,2.49,5.7,4.66,9.41,5.88l2.04-3.39C191.18,135.87,189.24,135,187.66,134z
				 M186.04,126.4h-9.03v-0.85h9.03V126.4z M186.65,129.74c-0.29,0.37-0.6,0.76-0.95,1.14c-0.27,0.3-0.54,0.6-0.81,0.88
				c-0.59-0.63-1.08-1.31-1.45-2.01C183.44,129.74,186.65,129.74,186.65,129.74z M186.04,122.05v0.87h-9.03v-0.87H186.04z
				 M177.01,134.34v-4.6h1.98c0.48,1.14,1.19,2.27,2.08,3.37C179.82,133.54,178.47,133.95,177.01,134.34z"/>
			<g>
				<path class="st0" d="M213.68,117.61L213.68,117.61h-13.53v9.6h13.53L213.68,117.61z M203.88,120.77h6.07v3.14h-6.07
					C203.88,123.91,203.88,120.77,203.88,120.77z"/>
				<path class="st0" d="M195.86,128.34v11.28h3.73v-0.81h2.96v0.8h3.73v-11.27h-0.01H195.86z M199.59,135.62v-3.95h2.96v3.95
					H199.59z"/>
				<path class="st0" d="M218,128.34h-10.58v11.28h3.81v-0.81h2.96v0.8H218L218,128.34L218,128.34z M211.23,135.62v-3.95h2.96v3.95
					H211.23z"/>
			</g>
		</g>
		<g>
			<g>
				<polygon class="st0" points="106.56,141.41 100.07,141.41 100.07,113.95 106.57,113.95 				"/>
				<polygon class="st0" points="55.25,121.72 51.53,141.41 46.99,141.41 43.25,121.72 43.25,141.41 38,141.35 38,113.95 46,113.94 
					49.25,131.11 52.5,113.94 60.78,113.94 60.78,141.41 55.25,141.41 				"/>
			</g>
			<path class="st0" d="M80.86,134.54c0,4.74-3.88,7.49-8.63,7.49c-4.76,0-8.64-2.75-8.64-7.5l-0.02-20.6h6.5l0.02,20.49
				c0,1.17,0.97,2.13,2.15,2.13c1.18,0,2.15-0.95,2.15-2.13l0.01-20.49h6.5L80.86,134.54z"/>
			<path class="st0" d="M97.26,135.39c0,4.15-3.38,6.67-7.53,6.67c-4.16,0-7.53-2.52-7.53-6.67c-0.02-1.03-0.02-2.56-0.02-4.01
				l5.78-0.01v4.02c0,0.77,0.63,1.4,1.41,1.4c0.77,0,1.41-0.63,1.41-1.4l0-21.46h6.5L97.26,135.39z"/>
		</g>
	</g>
</g>
</svg>
