<?xml version="1.0" encoding="utf-8"?>
<!-- Generator: Adobe Illustrator 23.1.1, SVG Export Plug-In . SVG Version: 6.00 Build 0)  -->
<svg version="1.1" id="レイヤー_1" xmlns="http://www.w3.org/2000/svg" xmlns:xlink="http://www.w3.org/1999/xlink" x="0px"
	 y="0px" viewBox="0 0 256 256" style="enable-background:new 0 0 256 256;" xml:space="preserve">
<style type="text/css">
	.st0{fill:#E6E6E6;}
	.st1{clip-path:url(#SVGID_2_);}
	.st2{fill:#FFFFFF;}
	.st3{clip-path:url(#SVGID_4_);}
	.st4{fill:#50646E;}
</style>
<g>
	<g id="g1086">
		<g id="g1084" transform="translate(230.7547,43.441)">
			<path id="path1082" class="st0" d="M-147.24,68.91c-7.6-1-13.76-0.12-18.72,1.76c-4.96,1.88-8.68,4.72-11.48,7.76
				c-5.6,6.04-7.36,12.72-7.36,13.24c0,3.96,10.88,4.4,11.72,0c1.24-6.56,3.6-11.76,7.52-15.32s9.4-5.48,16.84-5.48
				C-146.68,70.87-146.84,68.99-147.24,68.91"/>
		</g>
	</g>
	<g id="g1094">
		<g id="g1096">
			<g id="g1102">
				<g id="g1104">
					<g>
						<g>
							<g>
								<defs>
									
										<rect id="SVGID_1_" x="35.85" y="89.72" transform="matrix(0.4226 -0.9063 0.9063 0.4226 -68.4696 125.97)" width="57.56" height="54"/>
								</defs>
								<clipPath id="SVGID_2_">
									<use xlink:href="#SVGID_1_"  style="overflow:visible;"/>
								</clipPath>
								<g id="g1106" class="st1">
									<path id="path1124" class="st2" d="M45.49,116.37v18.84c0,4.32,12.12,4.32,12.12,0l0,0v-19.48c0-8,5.04-14,12.08-14.2l0,0
										c5.56-0.12,10.08,2.72,10.08,10.84l0,0c0,2.04,4.04,2.04,4.04,0l0,0c0-13.68-7.6-18.48-17.12-18.48l0,0
										C57.73,93.89,45.49,99.33,45.49,116.37"/>
								</g>
							</g>
						</g>
					</g>
				</g>
			</g>
		</g>
	</g>
	<g>
		<g>
			<defs>
				<rect id="SVGID_3_" x="32.69" y="89.53" width="195.31" height="73.24"/>
			</defs>
			<clipPath id="SVGID_4_">
				<use xlink:href="#SVGID_3_"  style="overflow:visible;"/>
			</clipPath>
			<g id="g1128" class="st3">
				<g id="g1134" transform="translate(234.75301,36.853805)">
					<path id="path1136" class="st2" d="M-144.36,86.86c0-1.96-1.8-2.8-5.44-2.8c-0.76,0-2.56,0.04-3.2,0.12v5.92
						c0.56,0.04,2.6,0.08,3.2,0.08c3.72,0,5.44-0.72,5.44-3.04V86.86z M-138.96,100.66h-4.4c-0.4,0-0.56-0.28-0.72-0.52l-5.2-7
						h-0.52c-0.96,0-2.4-0.08-3.2-0.12v7.12c0,0.28-0.28,0.52-0.68,0.52h-3.6c-0.4,0-0.72-0.24-0.72-0.52V82.02
						c0-0.52,0.44-0.72,1.16-0.8c1.88-0.2,4.44-0.36,7.08-0.36c5.56,0,10.4,1.44,10.4,5.96v0.28c0,2.8-1.92,4.52-4.88,5.36
						l5.68,7.68C-138.4,100.38-138.56,100.66-138.96,100.66"/>
				</g>
				<g id="g1138" transform="translate(249.1507,28.9319)">
					<path id="path1140" class="st2" d="M-133.96,108.41c-1.16,0.12-2.56,0.36-6.88,0.36c-4.68,0-8.36-0.92-8.36-5.4v-9.16
						c0-4.48,3.64-5.4,8.36-5.4c4.32,0,5.72,0.24,6.88,0.36c0.56,0.04,0.72,0.2,0.72,0.56v1.72c0,0.28-0.32,0.52-0.72,0.52h-7.36
						c-2.08,0-2.84,0.52-2.84,2.28v2.8h9.8c0.4,0,0.72,0.24,0.72,0.52v1.88c0,0.28-0.32,0.52-0.72,0.52h-9.8v3.4
						c0,1.72,0.76,2.28,2.84,2.28h7.36c0.4,0,0.72,0.24,0.72,0.52v1.68C-133.24,108.25-133.4,108.37-133.96,108.41"/>
				</g>
				<g id="g1142" transform="translate(261.02969,28.963806)">
					<path id="path1144" class="st2" d="M-125.37,108.31c-0.56,0.12-2.92,0.44-5.72,0.44c-4.32,0-10.24-1.56-10.24-8.04v-3.88
						c0-6.6,5.88-8.04,10.24-8.04c2.8,0,5.16,0.32,5.72,0.44c0.48,0.12,0.8,0.24,0.8,0.6v1.76c0,0.36-0.2,0.56-0.8,0.56
						c-1.28-0.08-3.72-0.24-5.64-0.24c-3.04,0-5.24,1.2-5.24,4.92v3.88c0,3.64,2.2,4.92,5.24,4.92c1.92,0,4.36-0.12,5.64-0.2
						c0.56-0.04,0.8,0.2,0.8,0.56v1.76C-124.57,108.11-124.93,108.23-125.37,108.31"/>
				</g>
				<g id="g1146" transform="translate(271.7341,36.853805)">
					<path id="path1148" class="st2" d="M-117.64,86.86c0-1.96-1.8-2.8-5.44-2.8c-0.76,0-2.56,0.04-3.2,0.12v5.92
						c0.56,0.04,2.6,0.08,3.2,0.08c3.72,0,5.44-0.72,5.44-3.04V86.86z M-112.24,100.66h-4.4c-0.4,0-0.56-0.28-0.72-0.52l-5.2-7.04
						h-0.52c-0.96,0-2.4-0.08-3.2-0.12v7.12c0,0.28-0.28,0.52-0.68,0.52h-3.6c-0.4,0-0.72-0.24-0.72-0.52V82.02
						c0-0.52,0.44-0.72,1.16-0.8c1.88-0.2,4.44-0.36,7.08-0.36c5.56,0,10.4,1.44,10.4,5.96v0.28c0,2.8-1.92,4.52-4.88,5.36
						l5.68,7.68C-111.68,100.38-111.84,100.66-112.24,100.66"/>
				</g>
				<g id="g1150" transform="translate(287.2822,28.9785)">
					<path id="path1152" class="st2" d="M-106.41,108.3c-1.28,0.12-5.84,0.44-8.04,0.44c-5.8,0-9.88-1.8-9.88-7.4V89.5
						c0-0.28,0.32-0.52,0.72-0.52h3.56c0.4,0,0.72,0.2,0.72,0.52v11.84c0,3,0.96,4.36,4.84,4.36c1.44,0,3.64-0.12,5-0.2v-16
						c0-0.28,0.28-0.52,0.68-0.52h3.56c0.4,0,0.72,0.2,0.72,0.52v17.2C-104.45,107.78-105.13,108.14-106.41,108.3"/>
				</g>
				<g id="g1154" transform="translate(293.8528,28.840698)">
					<path id="path1156" class="st2" d="M-101.67,108.67h-3.56c-0.4,0-0.72-0.24-0.72-0.52V89.63c0-0.28,0.32-0.48,0.72-0.48h3.56
						c0.4,0,0.72,0.2,0.72,0.48v18.52C-100.95,108.43-101.27,108.67-101.67,108.67"/>
				</g>
				<g id="g1158" transform="translate(306.9416,38.411804)">
					<path id="path1160" class="st2" d="M-92.2,82.6h-6.32v15.96c0,0.28-0.32,0.52-0.72,0.52h-3.56c-0.4,0-0.72-0.24-0.72-0.52V82.6
						h-6.32c-0.4,0-0.72-0.2-0.72-0.48v-2.08c0-0.28,0.32-0.48,0.72-0.48h17.68c0.4,0,0.72,0.2,0.72,0.48v2.08
						C-91.48,82.44-91.8,82.6-92.2,82.6"/>
				</g>
				<g id="g1186" transform="translate(218.19051,20.423202)">
					<path id="path1188_2_" class="st4" d="M-156.34,131.6"/>
					<path id="path1188_3_" class="st4" d="M-156.34,131.6"/>
				</g>
			</g>
		</g>
	</g>
</g>
</svg>
