<?xml version="1.0" encoding="utf-8"?>
<!-- Generator: Adobe Illustrator 23.1.1, SVG Export Plug-In . SVG Version: 6.00 Build 0)  -->
<svg version="1.1" id="sony" xmlns="http://www.w3.org/2000/svg" xmlns:xlink="http://www.w3.org/1999/xlink" x="0px" y="0px"
	 viewBox="0 0 256 256" style="enable-background:new 0 0 256 256;" xml:space="preserve">
<style type="text/css">
	.st0{fill:#FFFFFF;}
</style>
<path id="path4258" class="st0" d="M102.13,143.85c-6.52,0-12.57-1.96-16.61-5.58c-3.05-2.74-4.52-6.46-4.52-10.29
	c0-3.78,1.53-7.53,4.52-10.26c3.75-3.42,10.38-5.56,16.61-5.56c6.9,0,12.43,1.74,16.65,5.57c3,2.73,4.46,6.46,4.46,10.25
	c0,3.67-1.54,7.59-4.46,10.29C114.84,141.91,108.66,143.85,102.13,143.85v-4.18c3.46,0,6.67-1.19,8.91-3.43
	c2.23-2.22,3.26-4.94,3.26-8.27c0-3.19-1.12-6.17-3.26-8.28c-2.21-2.18-5.5-3.4-8.91-3.4c-3.42,0-6.71,1.21-8.93,3.4
	c-2.13,2.11-3.26,5.1-3.26,8.28c0,3.17,1.13,6.16,3.26,8.27c2.22,2.2,5.49,3.43,8.93,3.43V143.85L102.13,143.85z M54.47,112.17
	c-3.49,0-7.45,0.65-10.82,2.16c-3.11,1.39-5.65,3.63-5.65,7.35c0,3.35,2.13,5.31,2.07,5.25c0.91,0.83,2.36,2.25,6.17,3.08
	c1.7,0.37,5.34,0.94,8.97,1.32c3.6,0.38,7.14,0.74,8.58,1.11c1.15,0.29,3.07,0.69,3.07,2.85c0,2.15-2.03,2.81-2.38,2.95
	c-0.35,0.14-2.78,1.26-7.16,1.26c-3.23,0-7.11-0.97-8.52-1.48c-1.63-0.58-3.34-1.35-4.94-3.3c-0.4-0.48-1.02-1.81-1.02-3.13h-3.96
	v11.09h4.4v-1.5c0-0.17,0.21-0.87,0.95-0.54c0.92,0.42,3.62,1.49,6.44,2.08c2.31,0.48,3.8,0.83,6.68,0.83
	c4.69,0,7.21-0.76,8.95-1.26c1.64-0.47,3.67-1.31,5.32-2.63c0.89-0.71,2.85-2.53,2.85-5.84c0-3.17-1.7-5.14-2.3-5.74
	c-0.82-0.82-1.81-1.45-2.85-1.94c-0.9-0.43-2.33-0.94-3.5-1.22c-2.27-0.56-7.39-1.24-9.85-1.5c-2.57-0.27-7.03-0.64-8.81-1.19
	c-0.54-0.17-1.64-0.69-1.64-1.97c0-0.91,0.5-1.68,1.5-2.3c1.58-0.99,4.77-1.6,8.1-1.6c3.93-0.01,7.26,0.88,9.38,1.83
	c0.72,0.32,1.56,0.78,2.23,1.33c0.76,0.62,1.82,1.9,2.2,3.68h3.55v-9.65H68.5v1.12c0,0.36-0.37,0.83-1.08,0.44
	C65.64,114.19,60.62,112.18,54.47,112.17 M141.41,113.92l19.35,17.47l-0.2-11.76c-0.02-1.54-0.3-2.19-1.97-2.19h-3.64v-3.52h16.55
	v3.52h-3.55c-1.7,0-1.81,0.54-1.83,2.19l0.3,22.47h-5.67l-22.29-19.89l0,14.12c0.02,1.53,0.09,2.26,1.67,2.26h3.97v3.52h-16.25
	v-3.52h3.8c1.42,0,1.36-1.35,1.36-2.34v-16.48c0-1.06-0.15-2.32-2.38-2.32h-3.08v-3.52H141.41z M190.41,138.57
	c0.16,0,0.85-0.02,0.98-0.06c0.38-0.12,0.64-0.39,0.76-0.68c0.05-0.12,0.08-0.65,0.08-0.76l0-5.56c0-0.13-0.01-0.19-0.24-0.49
	c-0.25-0.33-10.14-11.53-10.59-12.02c-0.56-0.61-1.55-1.56-3.05-1.56h-3.44v-3.52h19.4v3.51h-2.34c-0.54,0-0.9,0.51-0.44,1.08
	c0,0,6.53,7.81,6.59,7.89c0.06,0.08,0.11,0.1,0.2,0.03c0.08-0.08,6.69-7.85,6.74-7.91c0.31-0.38,0.1-1.09-0.58-1.09h-2.4v-3.52H218
	v3.52h-3.55c-1.29,0-1.81,0.24-2.78,1.33c-0.44,0.5-10.44,11.91-10.71,12.22c-0.14,0.16-0.13,0.39-0.13,0.52v5.56
	c0,0.11,0.03,0.64,0.08,0.76c0.12,0.29,0.38,0.56,0.76,0.68c0.13,0.04,0.81,0.06,0.97,0.06h3.63v3.52h-19.3v-3.52L190.41,138.57
	L190.41,138.57z"/>
</svg>
