<?xml version="1.0" encoding="utf-8"?>
<!-- Generator: Adobe Illustrator 23.1.1, SVG Export Plug-In . SVG Version: 6.00 Build 0)  -->
<svg version="1.1" id="toyota" xmlns="http://www.w3.org/2000/svg" xmlns:xlink="http://www.w3.org/1999/xlink" x="0px" y="0px"
	 viewBox="0 0 256 256" style="enable-background:new 0 0 256 256;" xml:space="preserve">
<style type="text/css">
	.st0{fill-rule:evenodd;clip-rule:evenodd;fill:#FFFFFF;}
</style>
<path class="st0" d="M60.83,141.42c-2.35-1.47-4.08-6.55-4.08-12.58c0-0.22,0-0.44,0.01-0.66l0,0c-6.53-1.03-11.25-3.84-11.37-7.16
	l-0.02,0.04c-1.6,1.99-2.51,4.28-2.51,6.73c0,7.2,7.9,13.1,17.93,13.62L60.83,141.42z M39.84,128.32c0-8.06,10.03-14.59,22.39-14.59
	c12.37,0,22.39,6.53,22.39,14.59c0,8.06-10.03,14.59-22.39,14.59C49.87,142.91,39.84,136.38,39.84,128.32L39.84,128.32z
	 M62.23,115.84c2.39,0,4.42,3.62,5.17,8.68l0-0.01c4.65-0.72,7.9-2.39,7.9-4.33c0-2.6-5.85-4.71-13.07-4.71
	c-7.22,0-13.07,2.11-13.07,4.71c0,1.94,3.25,3.61,7.9,4.33l0,0.01C57.81,119.46,59.85,115.84,62.23,115.84L62.23,115.84z
	 M63.68,141.41c10.02-0.52,17.93-6.42,17.93-13.62c0-2.45-0.91-4.74-2.51-6.73l-0.02-0.04c-0.12,3.33-4.84,6.14-11.37,7.16l0,0
	c0,0.22,0.01,0.44,0.01,0.66c0,6.03-1.73,11.11-4.08,12.58L63.68,141.41z M62.23,124.89c1.04,0,2.07-0.04,3.1-0.13l0,0
	c-0.49-3.24-1.7-5.53-3.1-5.53s-2.61,2.29-3.1,5.53l0,0C60.16,124.84,61.2,124.89,62.23,124.89L62.23,124.89z M62.23,136.88
	c1.8,0,3.26-3.74,3.34-8.43l0.01,0c-2.23,0.21-4.47,0.21-6.7,0l0.01,0C58.97,133.14,60.44,136.88,62.23,136.88z M154.1,128.32
	c0-6.16,4.99-11.15,11.15-11.15c6.16,0,11.15,4.99,11.15,11.15c0,6.16-4.99,11.15-11.15,11.15
	C159.1,139.47,154.1,134.48,154.1,128.32L154.1,128.32z M165.25,135.38c3.44,0,6.23-3.16,6.23-7.06c0-3.9-2.79-7.06-6.23-7.06
	s-6.22,3.16-6.22,7.06C159.03,132.22,161.82,135.38,165.25,135.38z M189.06,121.82v17.15h-4.7v-17.15h0.02h-6.57v-3.88h17.8v3.88
	H189.06z M201.29,134.23L201.29,134.23l-1.81,4.73H194l8.67-21.02h5.85l8.67,21.02h-5.49l-1.8-4.73l-0.01,0H201.29z M205.6,130.68
	h2.96l0,0l-2.94-7.69h-0.04l-2.94,7.69l0,0H205.6z M102.46,121.82v17.15h-4.7v-17.15h0.02h-6.57v-3.88h17.81v3.88H102.46
	L102.46,121.82z M110.21,128.32c0-6.16,4.99-11.15,11.15-11.15c6.16,0,11.15,4.99,11.15,11.15c0,6.16-4.99,11.15-11.15,11.15
	C115.21,139.47,110.21,134.48,110.21,128.32z M121.37,135.38c3.44,0,6.23-3.16,6.23-7.06c0-3.9-2.79-7.06-6.23-7.06
	c-3.44,0-6.23,3.16-6.23,7.06C115.14,132.22,117.93,135.38,121.37,135.38z M143.31,138.96h2.38v-7.98l8.2-13.04h-5.49l-5.09,8.84
	l-5.09-8.84h-5.49l8.2,13.04v7.98L143.31,138.96L143.31,138.96z"/>
</svg>
