<?xml version="1.0" standalone="no"?>
<!DOCTYPE svg PUBLIC "-//W3C//DTD SVG 20010904//EN"
 "http://www.w3.org/TR/2001/REC-SVG-20010904/DTD/svg10.dtd">
<svg version="1.0" xmlns="http://www.w3.org/2000/svg"
 width="512.000000pt" height="512.000000pt" viewBox="0 0 512.000000 512.000000"
 preserveAspectRatio="xMidYMid meet">
<metadata>
Created by potrace 1.11, written by Peter Selinger 2001-2013
</metadata>
<g transform="translate(0.000000,512.000000) scale(0.100000,-0.100000)"
fill="#000000" stroke="none">
<path d="M2540 2560 l0 -1200 188 0 188 0 0 1200 0 1200 -188 0 -188 0 0
-1200z"/>
<path d="M170 3742 c-7 -3 -10 -407 -10 -1193 l0 -1189 195 0 195 0 0 505 0
505 633 0 634 0 1 -492 c0 -271 1 -499 1 -505 1 -10 47 -13 196 -13 l195 0 -2
1192 -3 1191 -165 -1 c-91 0 -178 -1 -195 -1 l-30 -1 1 -500 c0 -351 -3 -500
-10 -501 -6 -1 -290 -2 -631 -3 l-620 -1 -5 504 -5 505 -182 0 c-101 1 -187 0
-193 -2z"/>
<path d="M3159 3025 c17 -22 280 -354 460 -580 105 -132 191 -242 191 -245 0
-4 -118 -155 -168 -215 -15 -17 -325 -403 -359 -445 -30 -38 -118 -147 -131
-162 -14 -17 -3 -18 211 -18 l226 0 58 73 c32 39 60 74 63 77 3 3 52 64 110
135 57 72 107 132 110 135 3 3 28 33 54 68 27 34 51 62 54 62 3 0 10 -6 16
-14 6 -8 106 -132 221 -275 l210 -261 239 0 c227 0 238 1 224 18 -20 23 -5 4
-357 446 l-310 389 103 126 c100 122 541 666 557 686 5 7 -69 10 -223 10
l-230 0 -25 -30 c-42 -50 -54 -65 -153 -190 -157 -198 -227 -285 -244 -303
-10 -11 -21 -2 -56 45 -24 31 -52 67 -61 78 -10 11 -85 105 -168 210 l-150
190 -240 0 c-160 0 -237 -3 -232 -10z"/>
</g>
</svg>
